<?xml version="1.0" encoding="UTF-8" standalone="no"?>
<!DOCTYPE svg PUBLIC "-//W3C//DTD SVG 1.1//EN" "http://www.w3.org/Graphics/SVG/1.1/DTD/svg11.dtd">
<svg xmlns="http://www.w3.org/2000/svg" version="1.1" viewBox="0.00 0.00 1024.00 1024.00">
<g stroke-width="2.00" fill="none" stroke-linecap="butt">
<path stroke="#868b98" vector-effect="non-scaling-stroke" d="
  M 476.85 228.45
  A 0.32 0.32 0.0 0 0 476.31 228.22
  L 423.59 279.36
  A 0.32 0.32 0.0 0 0 423.49 279.59
  L 423.49 450.22
  A 0.32 0.32 0.0 0 0 424.03 450.45
  L 476.58 400.00
  A 0.32 0.32 0.0 0 0 476.68 399.77
  L 476.85 228.45"
/>
<path stroke="#c9aa80" vector-effect="non-scaling-stroke" d="
  M 243.72 567.26
  A 0.41 0.41 0.0 0 0 243.56 567.81
  Q 248.04 575.95 253.83 583.59
  C 278.02 615.51 320.00 623.66 355.49 607.24
  C 380.07 595.86 392.31 573.72 395.24 546.96
  Q 397.22 528.86 397.22 504.46
  Q 397.21 401.18 397.42 296.76
  Q 397.42 295.46 396.50 296.38
  Q 369.93 322.89 342.74 347.57
  Q 341.75 348.47 341.75 349.82
  Q 341.82 431.16 341.72 521.98
  C 341.70 537.48 341.40 559.89 321.05 562.16
  C 307.13 563.71 296.77 552.22 291.65 540.56
  Q 291.19 539.51 290.17 540.03
  Q 284.83 542.75 279.83 545.84
  Q 260.26 557.93 243.72 567.26"
/>
<path stroke="#a29175" vector-effect="non-scaling-stroke" d="
  M 548.24 526.80
  L 547.99 538.73"
/>
<path stroke="#868b98" vector-effect="non-scaling-stroke" d="
  M 547.99 538.73
  L 548.00 573.83"
/>
<path stroke="#c9aa80" vector-effect="non-scaling-stroke" d="
  M 548.00 573.83
  L 547.83 812.93
  A 0.32 0.32 0.0 0 0 548.37 813.17
  Q 574.21 789.23 600.13 764.47
  C 601.57 763.09 603.28 761.53 603.28 759.62
  Q 603.26 667.01 603.49 573.67"
/>
<path stroke="#868b98" vector-effect="non-scaling-stroke" d="
  M 603.49 573.67
  L 603.43 538.42"
/>
<path stroke="#a29175" vector-effect="non-scaling-stroke" d="
  M 603.43 538.42
  L 603.46 527.25"
/>
<path stroke="#c9aa80" vector-effect="non-scaling-stroke" d="
  M 603.46 527.25
  Q 603.23 526.50 604.00 526.50
  Q 657.66 526.46 711.44 526.80
  A 0.88 0.88 0.0 0 0 712.33 525.92
  L 712.53 471.87
  A 0.66 0.66 0.0 0 0 711.87 471.20
  L 604.52 471.50
  A 0.73 0.72 89.6 0 1 603.79 470.77
  L 603.73 408.79
  A 0.73 0.72 0.0 0 1 604.46 408.07
  L 722.99 408.31
  A 0.67 0.67 0.0 0 0 723.66 407.64
  L 723.70 354.34
  Q 723.70 353.72 723.09 353.72
  L 548.12 353.69
  Q 547.90 353.69 547.90 353.92
  L 547.94 470.50
  A 0.69 0.69 0.0 0 1 547.25 471.19
  L 490.98 471.26
  Q 490.48 471.26 490.48 471.77
  L 490.31 525.53
  Q 490.31 526.23 491.00 526.24
  Q 519.24 526.62 547.88 526.43
  Q 548.07 526.43 548.24 526.80"
/>
<path stroke="#754d17" vector-effect="non-scaling-stroke" d="
  M 603.46 527.25
  Q 602.92 526.57 602.25 526.58
  Q 575.63 526.94 549.00 526.65
  Q 548.64 526.64 548.24 526.80"
/>
<path stroke="#322f2f" vector-effect="non-scaling-stroke" d="
  M 603.43 538.42
  Q 598.59 539.16 593.61 538.99
  C 581.83 538.60 570.04 538.73 558.25 538.66
  Q 553.19 538.63 547.99 538.73"
/>
<path stroke="#59483a" vector-effect="non-scaling-stroke" d="
  M 603.49 573.67
  L 548.00 573.83"
/>
<path stroke="#868b98" vector-effect="non-scaling-stroke" d="
  M 423.28 667.76
  A 0.33 0.33 0.0 0 0 423.84 668.00
  L 476.64 617.02
  A 0.33 0.33 0.0 0 0 476.74 616.78
  L 476.73 421.27
  A 0.33 0.33 0.0 0 0 476.17 421.03
  L 423.59 471.67
  A 0.33 0.33 0.0 0 0 423.49 471.91
  L 423.28 667.76"
/>
</g>
<path fill="#f6edde" d="
  M 0.00 0.00
  L 1024.00 0.00
  L 1024.00 1024.00
  L 0.00 1024.00
  L 0.00 0.00
  Z
  M 476.85 228.45
  A 0.32 0.32 0.0 0 0 476.31 228.22
  L 423.59 279.36
  A 0.32 0.32 0.0 0 0 423.49 279.59
  L 423.49 450.22
  A 0.32 0.32 0.0 0 0 424.03 450.45
  L 476.58 400.00
  A 0.32 0.32 0.0 0 0 476.68 399.77
  L 476.85 228.45
  Z
  M 243.72 567.26
  A 0.41 0.41 0.0 0 0 243.56 567.81
  Q 248.04 575.95 253.83 583.59
  C 278.02 615.51 320.00 623.66 355.49 607.24
  C 380.07 595.86 392.31 573.72 395.24 546.96
  Q 397.22 528.86 397.22 504.46
  Q 397.21 401.18 397.42 296.76
  Q 397.42 295.46 396.50 296.38
  Q 369.93 322.89 342.74 347.57
  Q 341.75 348.47 341.75 349.82
  Q 341.82 431.16 341.72 521.98
  C 341.70 537.48 341.40 559.89 321.05 562.16
  C 307.13 563.71 296.77 552.22 291.65 540.56
  Q 291.19 539.51 290.17 540.03
  Q 284.83 542.75 279.83 545.84
  Q 260.26 557.93 243.72 567.26
  Z
  M 548.24 526.80
  L 547.99 538.73
  L 548.00 573.83
  L 547.83 812.93
  A 0.32 0.32 0.0 0 0 548.37 813.17
  Q 574.21 789.23 600.13 764.47
  C 601.57 763.09 603.28 761.53 603.28 759.62
  Q 603.26 667.01 603.49 573.67
  L 603.43 538.42
  L 603.46 527.25
  Q 603.23 526.50 604.00 526.50
  Q 657.66 526.46 711.44 526.80
  A 0.88 0.88 0.0 0 0 712.33 525.92
  L 712.53 471.87
  A 0.66 0.66 0.0 0 0 711.87 471.20
  L 604.52 471.50
  A 0.73 0.72 89.6 0 1 603.79 470.77
  L 603.73 408.79
  A 0.73 0.72 0.0 0 1 604.46 408.07
  L 722.99 408.31
  A 0.67 0.67 0.0 0 0 723.66 407.64
  L 723.70 354.34
  Q 723.70 353.72 723.09 353.72
  L 548.12 353.69
  Q 547.90 353.69 547.90 353.92
  L 547.94 470.50
  A 0.69 0.69 0.0 0 1 547.25 471.19
  L 490.98 471.26
  Q 490.48 471.26 490.48 471.77
  L 490.31 525.53
  Q 490.31 526.23 491.00 526.24
  Q 519.24 526.62 547.88 526.43
  Q 548.07 526.43 548.24 526.80
  Z
  M 423.28 667.76
  A 0.33 0.33 0.0 0 0 423.84 668.00
  L 476.64 617.02
  A 0.33 0.33 0.0 0 0 476.74 616.78
  L 476.73 421.27
  A 0.33 0.33 0.0 0 0 476.17 421.03
  L 423.59 471.67
  A 0.33 0.33 0.0 0 0 423.49 471.91
  L 423.28 667.76
  Z"
/>
<path fill="#162952" d="
  M 476.85 228.45
  L 476.68 399.77
  A 0.32 0.32 0.0 0 1 476.58 400.00
  L 424.03 450.45
  A 0.32 0.32 0.0 0 1 423.49 450.22
  L 423.49 279.59
  A 0.32 0.32 0.0 0 1 423.59 279.36
  L 476.31 228.22
  A 0.32 0.32 0.0 0 1 476.85 228.45
  Z"
/>
<path fill="#9b6621" d="
  M 243.72 567.26
  Q 260.26 557.93 279.83 545.84
  Q 284.83 542.75 290.17 540.03
  Q 291.19 539.51 291.65 540.56
  C 296.77 552.22 307.13 563.71 321.05 562.16
  C 341.40 559.89 341.70 537.48 341.72 521.98
  Q 341.82 431.16 341.75 349.82
  Q 341.75 348.47 342.74 347.57
  Q 369.93 322.89 396.50 296.38
  Q 397.42 295.46 397.42 296.76
  Q 397.21 401.18 397.22 504.46
  Q 397.22 528.86 395.24 546.96
  C 392.31 573.72 380.07 595.86 355.49 607.24
  C 320.00 623.66 278.02 615.51 253.83 583.59
  Q 248.04 575.95 243.56 567.81
  A 0.41 0.41 0.0 0 1 243.72 567.26
  Z"
/>
<path fill="#9b6621" d="
  M 603.46 527.25
  Q 602.92 526.57 602.25 526.58
  Q 575.63 526.94 549.00 526.65
  Q 548.64 526.64 548.24 526.80
  Q 548.07 526.43 547.88 526.43
  Q 519.24 526.62 491.00 526.24
  Q 490.31 526.23 490.31 525.53
  L 490.48 471.77
  Q 490.48 471.26 490.98 471.26
  L 547.25 471.19
  A 0.69 0.69 0.0 0 0 547.94 470.50
  L 547.90 353.92
  Q 547.90 353.69 548.12 353.69
  L 723.09 353.72
  Q 723.70 353.72 723.70 354.34
  L 723.66 407.64
  A 0.67 0.67 0.0 0 1 722.99 408.31
  L 604.46 408.07
  A 0.73 0.72 0.0 0 0 603.73 408.79
  L 603.79 470.77
  A 0.73 0.72 89.6 0 0 604.52 471.50
  L 711.87 471.20
  A 0.66 0.66 0.0 0 1 712.53 471.87
  L 712.33 525.92
  A 0.88 0.88 0.0 0 1 711.44 526.80
  Q 657.66 526.46 604.00 526.50
  Q 603.23 526.50 603.46 527.25
  Z"
/>
<path fill="#162952" d="
  M 423.28 667.76
  L 423.49 471.91
  A 0.33 0.33 0.0 0 1 423.59 471.67
  L 476.17 421.03
  A 0.33 0.33 0.0 0 1 476.73 421.27
  L 476.74 616.78
  A 0.33 0.33 0.0 0 1 476.64 617.02
  L 423.84 668.00
  A 0.33 0.33 0.0 0 1 423.28 667.76
  Z"
/>
<path fill="#4e340c" d="
  M 603.46 527.25
  L 603.43 538.42
  Q 598.59 539.16 593.61 538.99
  C 581.83 538.60 570.04 538.73 558.25 538.66
  Q 553.19 538.63 547.99 538.73
  L 548.24 526.80
  Q 548.64 526.64 549.00 526.65
  Q 575.63 526.94 602.25 526.58
  Q 602.92 526.57 603.46 527.25
  Z"
/>
<path fill="#162952" d="
  M 603.43 538.42
  L 603.49 573.67
  L 548.00 573.83
  L 547.99 538.73
  Q 553.19 538.63 558.25 538.66
  C 570.04 538.73 581.83 538.60 593.61 538.99
  Q 598.59 539.16 603.43 538.42
  Z"
/>
<path fill="#9b6621" d="
  M 603.49 573.67
  Q 603.26 667.01 603.28 759.62
  C 603.28 761.53 601.57 763.09 600.13 764.47
  Q 574.21 789.23 548.37 813.17
  A 0.32 0.32 0.0 0 1 547.83 812.93
  L 548.00 573.83
  L 603.49 573.67
  Z"
/>
</svg>
